<?xml version="1.0" standalone="no"?>
<!DOCTYPE svg PUBLIC "-//W3C//DTD SVG 20010904//EN"
 "http://www.w3.org/TR/2001/REC-SVG-20010904/DTD/svg10.dtd">
<svg version="1.0" xmlns="http://www.w3.org/2000/svg"
 width="256.000000pt" height="52.000000pt" viewBox="0 0 256.000000 52.000000"
 preserveAspectRatio="xMidYMid meet">

<g transform="translate(0.000000,52.000000) scale(0.100000,-0.100000)"
fill="#000000" stroke="none">
<path d="M0 260 l0 -260 65 0 65 0 0 65 0 65 36 0 36 0 -7 65 -7 65 36 0 c34
0 36 -2 36 -33 0 -32 2 -33 30 -29 29 4 30 3 30 -32 l0 -36 68 0 67 0 -1 -32
c-1 -31 -3 -33 -32 -30 -31 3 -32 2 -32 -32 l0 -36 65 0 65 0 0 260 0 260
-260 0 -260 0 0 -260z"/>
<path d="M1297 363 c-4 -3 -7 -12 -7 -20 0 -15 26 -18 34 -4 7 11 -18 33 -27
24z"/>
<path d="M1800 355 c0 -8 9 -15 20 -15 18 0 20 -7 20 -70 0 -66 1 -70 25 -76
14 -3 32 -4 40 0 19 7 9 34 -13 32 -14 -1 -17 11 -20 72 l-3 72 -34 0 c-24 0
-35 -5 -35 -15z"/>
<path d="M2230 280 c0 -72 3 -90 14 -90 10 0 16 14 18 42 2 31 8 44 21 46 14
3 17 -4 17 -42 0 -34 4 -46 15 -46 19 0 21 90 3 108 -16 16 -45 15 -51 0 -3
-7 -6 6 -6 30 -1 30 -5 42 -16 42 -12 0 -15 -17 -15 -90z"/>
<path d="M970 275 l0 -85 55 0 c42 0 55 3 55 15 0 11 -11 15 -40 15 -33 0 -40
3 -40 20 0 16 7 20 30 20 20 0 30 5 30 15 0 10 -10 15 -30 15 -23 0 -30 4 -30
20 0 17 7 20 40 20 29 0 40 4 40 15 0 12 -13 15 -55 15 l-55 0 0 -85z"/>
<path d="M1682 286 c-26 -88 -27 -96 -7 -96 8 0 15 7 15 15 0 10 10 15 30 15
20 0 30 -5 30 -15 0 -8 9 -15 19 -15 18 0 18 2 5 48 -8 26 -19 64 -25 85 -7
25 -15 37 -28 37 -14 0 -23 -17 -39 -74z m48 10 c0 -8 3 -21 6 -30 4 -12 0
-16 -16 -16 -16 0 -20 4 -16 16 3 9 6 22 6 30 0 8 5 14 10 14 6 0 10 -6 10
-14z"/>
<path d="M691 324 c-51 -65 -3 -149 74 -130 72 18 49 156 -25 156 -19 0 -36
-9 -49 -26z m73 -7 c23 -17 19 -85 -6 -101 -28 -17 -52 5 -56 50 -3 28 1 42
14 51 10 7 21 13 24 13 3 0 14 -6 24 -13z"/>
<path d="M722 298 c-28 -28 -9 -68 34 -68 21 0 17 17 -6 23 -26 7 -26 23 1 30
12 3 18 10 14 16 -8 14 -28 14 -43 -1z"/>
<path d="M1100 249 c0 -46 3 -59 15 -59 11 0 15 12 15 45 0 25 5 45 10 45 6 0
10 -20 10 -45 0 -25 5 -45 10 -45 6 0 10 20 10 45 0 25 5 45 10 45 6 0 10 -20
10 -45 0 -34 4 -45 15 -45 13 0 15 11 13 58 l-3 57 -57 1 -58 2 0 -59z"/>
<path d="M1250 295 c0 -8 9 -15 20 -15 16 0 20 -7 20 -30 0 -23 -4 -30 -20
-30 -11 0 -20 -7 -20 -15 0 -12 13 -15 55 -15 42 0 55 3 55 15 0 8 -9 15 -20
15 -17 0 -20 7 -20 45 0 45 0 45 -35 45 -24 0 -35 -5 -35 -15z"/>
<path d="M1380 295 c0 -8 5 -15 10 -15 6 0 10 -13 10 -30 0 -16 -4 -30 -10
-30 -5 0 -10 -7 -10 -15 0 -11 11 -15 40 -15 29 0 40 4 40 15 0 8 -7 15 -16
15 -12 0 -15 6 -11 22 10 38 -3 68 -29 68 -15 0 -24 -6 -24 -15z"/>
<path d="M1447 303 c-12 -12 -8 -18 24 -32 36 -16 45 -10 29 18 -10 20 -40 28
-53 14z"/>
<path d="M1965 296 c-11 -8 -18 -26 -18 -46 0 -40 24 -60 70 -60 23 0 33 5 33
15 0 10 -10 15 -29 15 -17 0 -33 5 -36 10 -4 6 10 10 34 10 45 0 51 11 25 48
-17 25 -51 29 -79 8z m60 -26 c4 -6 -5 -10 -19 -10 -14 0 -26 5 -26 10 0 6 9
10 19 10 11 0 23 -4 26 -10z"/>
<path d="M2090 224 c0 -68 3 -84 15 -84 11 0 15 11 16 38 0 20 3 31 6 25 7
-18 38 -16 57 3 20 20 21 68 1 88 -9 8 -32 15 -55 14 l-40 0 0 -84z m75 26 c0
-16 -6 -26 -18 -28 -19 -4 -32 20 -23 44 9 25 41 13 41 -16z"/>
</g>
</svg>
